#N canvas 416 108 993 723 12;
#X obj 64 295 markov;
#A saved memory;
#A saved indices 0;
#A saved markov;
#A saved order.in 12;
#A saved order 12;
#A saved markov.index 9546;
#X msg 81 109 make;
#X msg 96 133 reset;
#X msg 108 157 random;
#X msg 123 205 clear;
#X text 142 84 Set the order;
#X text 122 108 Create the chains;
#X text 166 206 Clear all contents;
#X text 163 158 Set the player to random position;
#X text 139 135 Set the player to starting position;
#X msg 64 85 order \$1;
#X obj 64 33 loadbang;
#X floatatom 22 34 5 1 100 0 - - -;
#X obj 64 391 list split 1;
#X obj 110 343 print markov;
#X obj 123 181 r \$0-init;
#X obj 329 236 bng 15 250 50 0 empty empty play 17 7 0 10 -262144 -1
-1;
#N canvas 592 273 645 287 player 0;
#X obj 32 32 inlet;
#X obj 102 178 del;
#X obj 120 130 r \$0-tempo;
#X obj 32 56 bng 15 250 50 0 empty empty play 17 7 0 10 -262144 -1
-1;
#X obj 76 32 inlet;
#X obj 289 72 hsl 128 15 0.5 1.5 0 0 \$0-velocity empty velocity -2
-8 0 10 -262144 -1 -1 5550 1;
#X obj 286 32 inlet;
#X obj 151 72 hsl 128 15 1.5 0.5 0 0 \$0-tempo empty tempo -2 -8 0
10 -262144 -1 -1 6350 1;
#X obj 148 32 inlet;
#X obj 199 130 loadbang;
#X msg 199 154 1;
#X obj 313 130 loadbang;
#X msg 313 154 1;
#X obj 102 226 s \$0-markov_bang;
#X obj 199 178 s \$0-init_tempo;
#X obj 313 178 s \$0-init_velocity;
#X obj 102 106 r \$0-delay;
#X obj 102 154 * 1;
#X obj 102 202 spigot;
#X obj 427 72 hsl 128 15 0 1000 0 0 \$0-note_length empty note_length
-2 -8 0 10 -262144 -1 -1 2540 1;
#X obj 424 32 inlet;
#X obj 448 130 loadbang;
#X msg 448 154 200;
#X obj 448 178 s \$0-init_note_length;
#X obj 76 56 bng 15 250 50 0 empty empty stop 17 7 0 10 -262144 -1
-1;
#X msg 76 76 0;
#X obj 35 103 t b b;
#X msg 67 127 1;
#X connect 0 0 3 0;
#X connect 1 0 18 0;
#X connect 2 0 17 1;
#X connect 3 0 26 0;
#X connect 4 0 24 0;
#X connect 6 0 5 0;
#X connect 8 0 7 0;
#X connect 9 0 10 0;
#X connect 10 0 14 0;
#X connect 11 0 12 0;
#X connect 12 0 15 0;
#X connect 16 0 17 0;
#X connect 17 0 1 0;
#X connect 18 0 13 0;
#X connect 20 0 19 0;
#X connect 21 0 22 0;
#X connect 22 0 23 0;
#X connect 24 0 25 0;
#X connect 25 0 18 1;
#X connect 26 0 13 0;
#X connect 26 1 27 0;
#X connect 27 0 18 1;
#X restore 329 397 pd player;
#X obj 377 344 hsl 128 15 0 1 0 0 \$0-velocity \$0-init_velocity velocity
-2 -8 0 10 -262144 -1 -1 11900 0;
#X obj 362 308 hsl 128 15 1.5 0.5 0 0 \$0-tempo \$0-init_tempo tempo
-2 -8 0 10 -262144 -1 -1 6350 0;
#X obj 140 229 r \$0-markov_bang;
#X obj 161 253 r \$0-midi_list;
#X obj 87 367 s \$0-delay;
#X obj 64 319 t l f l;
#N canvas 72 96 450 300 list-drip 0;
#X obj 164 74 inlet;
#X obj 164 184 list store;
#X obj 164 118 until;
#X obj 164 140 f;
#X obj 194 140 + 1;
#X msg 164 162 get \$1 1;
#X obj 207 119 0;
#X obj 164 206 outlet;
#X obj 231 206 outlet;
#X obj 164 96 t b b a;
#X connect 0 0 9 0;
#X connect 1 0 7 0;
#X connect 1 1 8 0;
#X connect 1 1 2 1;
#X connect 2 0 3 0;
#X connect 3 0 5 0;
#X connect 3 0 4 0;
#X connect 4 0 3 1;
#X connect 5 0 1 0;
#X connect 6 0 3 1;
#X connect 9 0 2 0;
#X connect 9 1 6 0;
#X connect 9 2 1 1;
#X restore 157 641 pd list-drip;
#X obj 157 507 route 0 1;
#X obj 157 483 list prepend;
#X obj 392 376 hsl 128 15 0 1000 0 0 empty \$0-init_note_length note_length
-2 -8 0 10 -262144 -1 -1 2540 0;
#X obj 300 530 r \$0-note_length;
#X obj 187 531 t l l;
#X obj 219 603 pack f f 0;
#X obj 219 555 pipe 0 0 0 0;
#X obj 219 579 - 16;
#X obj 189 447 expr if($f1 >= 144 && $f1 < 160 \, 1 \, 0);
#X obj 157 423 t l f;
#X obj 157 391 r \$0-program;
#X obj 157 665 midiout;
#X obj 119 555 r \$0-velocity;
#X obj 101 579 * 1;
#X obj 61 531 list split 2;
#X obj 76 603 list;
#X obj 344 267 bng 15 250 50 0 empty empty stop 17 7 0 10 -262144 -1
-1;
#X msg 64 57 4;
#X obj 633 535 s \$0-program;
#X msg 578 361 line 0;
#X obj 561 387 text sequence \$0-midiFile;
#X msg 596 312 read midifile.txt;
#X msg 638 264 midiFileLoaded;
#X obj 638 288 print;
#X obj 561 118 openpanel;
#X obj 561 98 bng 15 250 50 0 empty empty loadMidiFile 17 7 0 10 -262144
-1 -1;
#X obj 613 240 midi;
#X msg 631 190 open \$1;
#X msg 613 215 save midifile.txt;
#X obj 596 337 text define \$0-midiFile;
#X obj 733 411 text size \$0-midiFile;
#X obj 561 559 s \$0-midi_list;
#X obj 733 436 print midiFileSize;
#X obj 633 511 spigot;
#X obj 593 436 list split 1;
#X obj 672 487 expr if($f1 >= 192 && $f1 < 207 \, 1 \, 0), f 39;
#X obj 633 460 t l f;
#X obj 561 411 t l l;
#X obj 649 166 s \$0-init;
#X obj 561 142 t b b b b a b;
#X connect 0 0 23 0;
#X connect 1 0 0 0;
#X connect 2 0 0 0;
#X connect 3 0 0 0;
#X connect 4 0 0 0;
#X connect 10 0 0 0;
#X connect 11 0 42 0;
#X connect 12 0 10 0;
#X connect 13 1 34 0;
#X connect 15 0 4 0;
#X connect 16 0 17 0;
#X connect 18 0 17 3;
#X connect 19 0 17 2;
#X connect 20 0 0 0;
#X connect 21 0 0 1;
#X connect 23 0 13 0;
#X connect 23 1 22 0;
#X connect 23 2 14 0;
#X connect 24 0 36 0;
#X connect 25 0 24 0;
#X connect 25 1 29 0;
#X connect 26 0 25 0;
#X connect 27 0 17 4;
#X connect 28 0 31 3;
#X connect 29 0 39 0;
#X connect 29 1 31 0;
#X connect 30 0 24 0;
#X connect 31 0 32 0;
#X connect 31 1 30 1;
#X connect 32 0 30 0;
#X connect 33 0 26 1;
#X connect 34 0 26 0;
#X connect 34 1 33 0;
#X connect 35 0 34 0;
#X connect 37 0 38 1;
#X connect 38 0 40 1;
#X connect 39 0 40 0;
#X connect 39 1 38 0;
#X connect 40 0 24 0;
#X connect 41 0 17 1;
#X connect 42 0 10 0;
#X connect 44 0 45 0;
#X connect 45 0 62 0;
#X connect 45 1 55 0;
#X connect 46 0 54 0;
#X connect 47 0 48 0;
#X connect 49 0 64 0;
#X connect 50 0 49 0;
#X connect 51 1 47 0;
#X connect 52 0 51 0;
#X connect 53 0 51 0;
#X connect 55 0 57 0;
#X connect 58 0 43 0;
#X connect 59 1 61 0;
#X connect 60 0 58 1;
#X connect 61 0 58 0;
#X connect 61 1 60 0;
#X connect 62 0 56 0;
#X connect 62 1 59 0;
#X connect 64 0 45 0;
#X connect 64 1 44 0;
#X connect 64 2 46 0;
#X connect 64 3 53 0;
#X connect 64 4 52 0;
#X connect 64 5 63 0;
