#N canvas 349 85 1108 789 12;
#X obj 64 295 markov;
#A saved memory;
#A saved indices 0;
#A saved markov;
#A saved order.in 2;
#A saved order 3;
#A saved markov.index 1768;
#X msg 81 109 make;
#X msg 96 133 reset;
#X msg 108 157 random;
#X msg 123 205 clear;
#X text 142 84 Set the order;
#X text 122 108 Create the chains;
#X text 166 206 Clear all contents;
#X text 163 158 Set the player to random position;
#X text 139 135 Set the player to starting position;
#X msg 64 85 order \$1;
#X obj 64 33 loadbang;
#X msg 64 57 2;
#X msg 672 352 line 0;
#X obj 655 378 text sequence \$0-midiFile;
#X msg 690 303 read midifile.txt;
#X msg 732 255 midiFileLoaded;
#X obj 732 279 print;
#X obj 655 85 openpanel;
#X obj 655 65 bng 15 250 50 0 empty empty loadMidiFile 17 7 0 10 -262144
-1 -1;
#X obj 707 231 midi;
#X msg 725 181 open \$1;
#X msg 707 206 save midifile.txt;
#X floatatom 22 34 5 1 100 0 - - -;
#X obj 64 391 list split 1;
#X obj 110 343 print markov;
#X obj 123 181 r \$0-init;
#N canvas 302 354 641 300 ctlout 0;
#X obj 30 16 inlet;
#X obj 517 64 outlet;
#X obj 273 256 ctlout 9;
#X obj 303 232 ctlout 10;
#X obj 334 208 ctlout 11;
#X obj 364 184 ctlout 12;
#X obj 395 160 ctlout 13;
#X obj 425 136 ctlout 14;
#X obj 456 112 ctlout 15;
#X obj 486 88 ctlout 16;
#X obj 30 232 ctlout 1;
#X obj 60 208 ctlout 2;
#X obj 90 184 ctlout 3;
#X obj 121 160 ctlout 4;
#X obj 151 136 ctlout 5;
#X obj 182 112 ctlout 6;
#X obj 212 88 ctlout 7;
#X obj 243 64 ctlout 8;
#X obj 30 40 route 176 177 178 179 180 181 182 183 184 185 186 187
188 189 190 191, f 70;
#X connect 0 0 18 0;
#X connect 18 0 10 0;
#X connect 18 1 11 0;
#X connect 18 2 12 0;
#X connect 18 3 13 0;
#X connect 18 4 14 0;
#X connect 18 5 15 0;
#X connect 18 6 16 0;
#X connect 18 7 17 0;
#X connect 18 8 2 0;
#X connect 18 9 3 0;
#X connect 18 10 4 0;
#X connect 18 11 5 0;
#X connect 18 12 6 0;
#X connect 18 13 7 0;
#X connect 18 14 8 0;
#X connect 18 15 9 0;
#X connect 18 16 1 0;
#X restore 104 487 pd ctlout;
#N canvas 724 374 642 316 pgmout 0;
#X obj 284 265 pgmout 9;
#X obj 314 241 pgmout 10;
#X obj 345 217 pgmout 11;
#X obj 375 193 pgmout 12;
#X obj 406 169 pgmout 13;
#X obj 436 145 pgmout 14;
#X obj 467 121 pgmout 15;
#X obj 497 97 pgmout 16;
#X obj 41 241 pgmout 1;
#X obj 71 217 pgmout 2;
#X obj 101 193 pgmout 3;
#X obj 132 169 pgmout 4;
#X obj 162 145 pgmout 5;
#X obj 193 121 pgmout 6;
#X obj 223 97 pgmout 7;
#X obj 254 73 pgmout 8;
#X obj 41 49 route 192 193 194 195 196 197 198 199 200 201 202 203
204 205 206 207, f 70;
#X obj 41 25 inlet;
#X obj 528 73 outlet;
#X connect 16 0 8 0;
#X connect 16 1 9 0;
#X connect 16 2 10 0;
#X connect 16 3 11 0;
#X connect 16 4 12 0;
#X connect 16 5 13 0;
#X connect 16 6 14 0;
#X connect 16 7 15 0;
#X connect 16 8 0 0;
#X connect 16 9 1 0;
#X connect 16 10 2 0;
#X connect 16 11 3 0;
#X connect 16 12 4 0;
#X connect 16 13 5 0;
#X connect 16 14 6 0;
#X connect 16 15 7 0;
#X connect 16 16 18 0;
#X connect 17 0 16 0;
#X restore 104 511 pd pgmout;
#N canvas 663 208 450 517 midiout 0;
#X obj 127 66 route 240 247 248 255;
#X obj 231 234 midiout;
#X obj 267 138 midiout;
#X obj 199 258 print timingclock;
#X msg 231 210 248 \$1;
#X msg 267 114 255 \$1;
#X obj 235 90 t f f;
#X obj 199 186 t f f;
#X obj 235 162 print systemreset;
#X obj 159 426 midiout;
#X obj 195 330 midiout;
#X obj 163 282 t f f;
#X obj 127 378 t f f;
#X obj 127 450 print sysex;
#X msg 159 402 240 \$1;
#X msg 195 306 257 \$1;
#X obj 163 354 print sysexend;
#X obj 127 42 inlet;
#X connect 0 0 12 0;
#X connect 0 1 11 0;
#X connect 0 2 7 0;
#X connect 0 3 6 0;
#X connect 4 0 1 0;
#X connect 5 0 2 0;
#X connect 6 0 8 0;
#X connect 6 1 5 0;
#X connect 7 0 3 0;
#X connect 7 1 4 0;
#X connect 11 0 16 0;
#X connect 11 1 15 0;
#X connect 12 0 13 0;
#X connect 12 1 14 0;
#X connect 14 0 9 0;
#X connect 15 0 10 0;
#X connect 17 0 0 0;
#X restore 104 583 pd midiout;
#N canvas 299 229 693 342 makenote 0;
#X obj 37 28 inlet;
#X obj 37 53 route 144 145 146 147 148 149 150 151 152 153 154 155
156 157 158 159, f 70;
#X obj 524 77 outlet;
#N canvas 72 96 450 300 note 0;
#X obj 126 131 makenote 0 200;
#X obj 191 83 r \$0-velocity;
#X obj 134 83 unpack;
#X obj 173 107 * 1;
#X obj 221 106 r \$0-note_length;
#X obj 134 58 inlet;
#X obj 126 198 noteout 1;
#X connect 0 0 6 0;
#X connect 0 1 6 1;
#X connect 1 0 3 1;
#X connect 2 0 0 0;
#X connect 2 1 3 0;
#X connect 3 0 0 1;
#X connect 4 0 0 2;
#X connect 5 0 2 0;
#X restore 37 253 pd note;
#N canvas 72 96 450 300 note 0;
#X obj 126 131 makenote 0 200;
#X obj 191 83 r \$0-velocity;
#X obj 134 83 unpack;
#X obj 173 107 * 1;
#X obj 221 106 r \$0-note_length;
#X obj 134 58 inlet;
#X obj 126 198 noteout 2;
#X connect 0 0 6 0;
#X connect 0 1 6 1;
#X connect 1 0 3 1;
#X connect 2 0 0 0;
#X connect 2 1 3 0;
#X connect 3 0 0 1;
#X connect 4 0 0 2;
#X connect 5 0 2 0;
#X restore 67 228 pd note;
#N canvas 72 96 450 300 note 0;
#X obj 126 131 makenote 0 200;
#X obj 191 83 r \$0-velocity;
#X obj 134 83 unpack;
#X obj 173 107 * 1;
#X obj 221 106 r \$0-note_length;
#X obj 134 58 inlet;
#X obj 126 198 noteout 3;
#X connect 0 0 6 0;
#X connect 0 1 6 1;
#X connect 1 0 3 1;
#X connect 2 0 0 0;
#X connect 2 1 3 0;
#X connect 3 0 0 1;
#X connect 4 0 0 2;
#X connect 5 0 2 0;
#X restore 97 203 pd note;
#N canvas 72 96 450 300 note 0;
#X obj 126 131 makenote 0 200;
#X obj 191 83 r \$0-velocity;
#X obj 134 83 unpack;
#X obj 173 107 * 1;
#X obj 221 106 r \$0-note_length;
#X obj 134 58 inlet;
#X obj 126 198 noteout 4;
#X connect 0 0 6 0;
#X connect 0 1 6 1;
#X connect 1 0 3 1;
#X connect 2 0 0 0;
#X connect 2 1 3 0;
#X connect 3 0 0 1;
#X connect 4 0 0 2;
#X connect 5 0 2 0;
#X restore 128 178 pd note;
#N canvas 72 96 450 300 note 0;
#X obj 126 131 makenote 0 200;
#X obj 191 83 r \$0-velocity;
#X obj 134 83 unpack;
#X obj 173 107 * 1;
#X obj 221 106 r \$0-note_length;
#X obj 134 58 inlet;
#X obj 126 198 noteout 5;
#X connect 0 0 6 0;
#X connect 0 1 6 1;
#X connect 1 0 3 1;
#X connect 2 0 0 0;
#X connect 2 1 3 0;
#X connect 3 0 0 1;
#X connect 4 0 0 2;
#X connect 5 0 2 0;
#X restore 158 153 pd note;
#N canvas 72 96 450 300 note 0;
#X obj 126 131 makenote 0 200;
#X obj 191 83 r \$0-velocity;
#X obj 134 83 unpack;
#X obj 173 107 * 1;
#X obj 221 106 r \$0-note_length;
#X obj 134 58 inlet;
#X obj 126 198 noteout 6;
#X connect 0 0 6 0;
#X connect 0 1 6 1;
#X connect 1 0 3 1;
#X connect 2 0 0 0;
#X connect 2 1 3 0;
#X connect 3 0 0 1;
#X connect 4 0 0 2;
#X connect 5 0 2 0;
#X restore 189 128 pd note;
#N canvas 72 96 450 300 note 0;
#X obj 126 131 makenote 0 200;
#X obj 191 83 r \$0-velocity;
#X obj 134 83 unpack;
#X obj 173 107 * 1;
#X obj 221 106 r \$0-note_length;
#X obj 134 58 inlet;
#X obj 126 198 noteout 7;
#X connect 0 0 6 0;
#X connect 0 1 6 1;
#X connect 1 0 3 1;
#X connect 2 0 0 0;
#X connect 2 1 3 0;
#X connect 3 0 0 1;
#X connect 4 0 0 2;
#X connect 5 0 2 0;
#X restore 219 103 pd note;
#N canvas 195 590 450 300 note 0;
#X obj 126 131 makenote 0 200;
#X obj 191 83 r \$0-velocity;
#X obj 134 83 unpack;
#X obj 173 107 * 1;
#X obj 221 106 r \$0-note_length;
#X obj 134 58 inlet;
#X obj 126 161 noteout 8;
#X connect 0 0 6 0;
#X connect 0 1 6 1;
#X connect 1 0 3 1;
#X connect 2 0 0 0;
#X connect 2 1 3 0;
#X connect 3 0 0 1;
#X connect 4 0 0 2;
#X connect 5 0 2 0;
#X restore 250 78 pd note;
#N canvas 72 96 450 300 note 0;
#X obj 126 131 makenote 0 200;
#X obj 191 83 r \$0-velocity;
#X obj 134 83 unpack;
#X obj 173 107 * 1;
#X obj 221 106 r \$0-note_length;
#X obj 134 58 inlet;
#X obj 126 198 noteout 9;
#X connect 0 0 6 0;
#X connect 0 1 6 1;
#X connect 1 0 3 1;
#X connect 2 0 0 0;
#X connect 2 1 3 0;
#X connect 3 0 0 1;
#X connect 4 0 0 2;
#X connect 5 0 2 0;
#X restore 280 277 pd note;
#N canvas 72 96 450 300 note 0;
#X obj 126 131 makenote 0 200;
#X obj 191 83 r \$0-velocity;
#X obj 134 83 unpack;
#X obj 173 107 * 1;
#X obj 221 106 r \$0-note_length;
#X obj 134 58 inlet;
#X obj 126 198 noteout 10;
#X connect 0 0 6 0;
#X connect 0 1 6 1;
#X connect 1 0 3 1;
#X connect 2 0 0 0;
#X connect 2 1 3 0;
#X connect 3 0 0 1;
#X connect 4 0 0 2;
#X connect 5 0 2 0;
#X restore 310 252 pd note;
#N canvas 72 96 450 300 note 0;
#X obj 126 131 makenote 0 200;
#X obj 191 83 r \$0-velocity;
#X obj 134 83 unpack;
#X obj 173 107 * 1;
#X obj 221 106 r \$0-note_length;
#X obj 134 58 inlet;
#X obj 126 198 noteout 11;
#X connect 0 0 6 0;
#X connect 0 1 6 1;
#X connect 1 0 3 1;
#X connect 2 0 0 0;
#X connect 2 1 3 0;
#X connect 3 0 0 1;
#X connect 4 0 0 2;
#X connect 5 0 2 0;
#X restore 341 227 pd note;
#N canvas 72 96 450 300 note 0;
#X obj 126 131 makenote 0 200;
#X obj 191 83 r \$0-velocity;
#X obj 134 83 unpack;
#X obj 173 107 * 1;
#X obj 221 106 r \$0-note_length;
#X obj 134 58 inlet;
#X obj 126 198 noteout 12;
#X connect 0 0 6 0;
#X connect 0 1 6 1;
#X connect 1 0 3 1;
#X connect 2 0 0 0;
#X connect 2 1 3 0;
#X connect 3 0 0 1;
#X connect 4 0 0 2;
#X connect 5 0 2 0;
#X restore 371 202 pd note;
#N canvas 418 331 450 300 note 0;
#X obj 126 131 makenote 0 200;
#X obj 191 83 r \$0-velocity;
#X obj 134 83 unpack;
#X obj 173 107 * 1;
#X obj 221 106 r \$0-note_length;
#X obj 134 58 inlet;
#X obj 126 198 noteout 13;
#X connect 0 0 6 0;
#X connect 0 1 6 1;
#X connect 1 0 3 1;
#X connect 2 0 0 0;
#X connect 2 1 3 0;
#X connect 3 0 0 1;
#X connect 4 0 0 2;
#X connect 5 0 2 0;
#X restore 402 177 pd note;
#N canvas 72 96 450 300 note 0;
#X obj 126 131 makenote 0 200;
#X obj 191 83 r \$0-velocity;
#X obj 134 83 unpack;
#X obj 173 107 * 1;
#X obj 221 106 r \$0-note_length;
#X obj 134 58 inlet;
#X obj 126 198 noteout 14;
#X connect 0 0 6 0;
#X connect 0 1 6 1;
#X connect 1 0 3 1;
#X connect 2 0 0 0;
#X connect 2 1 3 0;
#X connect 3 0 0 1;
#X connect 4 0 0 2;
#X connect 5 0 2 0;
#X restore 432 152 pd note;
#N canvas 72 96 450 300 note 0;
#X obj 126 131 makenote 0 200;
#X obj 191 83 r \$0-velocity;
#X obj 134 83 unpack;
#X obj 173 107 * 1;
#X obj 221 106 r \$0-note_length;
#X obj 134 58 inlet;
#X obj 126 198 noteout 15;
#X connect 0 0 6 0;
#X connect 0 1 6 1;
#X connect 1 0 3 1;
#X connect 2 0 0 0;
#X connect 2 1 3 0;
#X connect 3 0 0 1;
#X connect 4 0 0 2;
#X connect 5 0 2 0;
#X restore 463 127 pd note;
#N canvas 72 96 450 300 note 0;
#X obj 126 131 makenote 0 200;
#X obj 191 83 r \$0-velocity;
#X obj 134 83 unpack;
#X obj 173 107 * 1;
#X obj 221 106 r \$0-note_length;
#X obj 134 58 inlet;
#X obj 126 198 noteout 16;
#X connect 0 0 6 0;
#X connect 0 1 6 1;
#X connect 1 0 3 1;
#X connect 2 0 0 0;
#X connect 2 1 3 0;
#X connect 3 0 0 1;
#X connect 4 0 0 2;
#X connect 5 0 2 0;
#X restore 493 102 pd note;
#X connect 0 0 1 0;
#X connect 1 0 3 0;
#X connect 1 1 4 0;
#X connect 1 2 5 0;
#X connect 1 3 6 0;
#X connect 1 4 7 0;
#X connect 1 5 8 0;
#X connect 1 6 9 0;
#X connect 1 7 10 0;
#X connect 1 8 11 0;
#X connect 1 9 12 0;
#X connect 1 10 13 0;
#X connect 1 11 14 0;
#X connect 1 12 15 0;
#X connect 1 13 16 0;
#X connect 1 14 17 0;
#X connect 1 15 18 0;
#X connect 1 16 2 0;
#X restore 104 439 pd makenote;
#N canvas 540 304 646 341 polytouch 0;
#X obj 42 28 inlet;
#X obj 42 53 route 160 161 162 163 164 165 166 167 168 169 170 171
172 173 174 175, f 70;
#X obj 224 101 polytouchout 7;
#X obj 194 125 polytouchout 6;
#X obj 163 149 polytouchout 5;
#X obj 133 173 polytouchout 4;
#X obj 102 197 polytouchout 3;
#X obj 72 221 polytouchout 2;
#X obj 42 245 polytouchout 1;
#X obj 285 269 polytouchout 9;
#X obj 315 245 polytouchout 10;
#X obj 346 221 polytouchout 11;
#X obj 376 197 polytouchout 12;
#X obj 407 173 polytouchout 13;
#X obj 437 149 polytouchout 14;
#X obj 468 125 polytouchout 15;
#X obj 498 101 polytouchout 16;
#X obj 255 77 polytouchout 8;
#X obj 529 77 outlet;
#X connect 0 0 1 0;
#X connect 1 0 8 0;
#X connect 1 1 7 0;
#X connect 1 2 6 0;
#X connect 1 3 5 0;
#X connect 1 4 4 0;
#X connect 1 5 3 0;
#X connect 1 6 2 0;
#X connect 1 7 17 0;
#X connect 1 8 9 0;
#X connect 1 9 10 0;
#X connect 1 10 11 0;
#X connect 1 11 12 0;
#X connect 1 12 13 0;
#X connect 1 13 14 0;
#X connect 1 14 15 0;
#X connect 1 15 16 0;
#X connect 1 16 18 0;
#X restore 104 463 pd polytouch;
#N canvas 560 333 642 316 touchout 0;
#X obj 41 25 inlet;
#X obj 528 73 outlet;
#X obj 41 49 route 208 209 210 211 212 213 214 215 216 217 218 219
220 221 222 223, f 70;
#X obj 41 241 touchout 1;
#X obj 71 217 touchout 2;
#X obj 101 193 touchout 3;
#X obj 132 169 touchout 4;
#X obj 162 145 touchout 5;
#X obj 193 121 touchout 6;
#X obj 223 97 touchout 7;
#X obj 254 73 touchout 8;
#X obj 284 265 touchout 9;
#X obj 314 241 touchout 10;
#X obj 345 217 touchout 11;
#X obj 375 193 touchout 12;
#X obj 406 169 touchout 13;
#X obj 436 145 touchout 14;
#X obj 467 121 touchout 15;
#X obj 497 97 touchout 16;
#X connect 0 0 2 0;
#X connect 2 0 3 0;
#X connect 2 1 4 0;
#X connect 2 2 5 0;
#X connect 2 3 6 0;
#X connect 2 4 7 0;
#X connect 2 5 8 0;
#X connect 2 6 9 0;
#X connect 2 7 10 0;
#X connect 2 8 11 0;
#X connect 2 9 12 0;
#X connect 2 10 13 0;
#X connect 2 11 14 0;
#X connect 2 12 15 0;
#X connect 2 13 16 0;
#X connect 2 14 17 0;
#X connect 2 15 18 0;
#X connect 2 16 1 0;
#X restore 104 535 pd touchout;
#N canvas 565 340 642 316 bendout 0;
#X obj 41 25 inlet;
#X obj 528 73 outlet;
#X obj 41 241 bendout 1;
#X obj 71 217 bendout 2;
#X obj 101 193 bendout 3;
#X obj 132 169 bendout 4;
#X obj 162 145 bendout 5;
#X obj 193 121 bendout 6;
#X obj 223 97 bendout 7;
#X obj 254 73 bendout 8;
#X obj 284 265 bendout 9;
#X obj 314 241 bendout 10;
#X obj 345 217 bendout 11;
#X obj 375 193 bendout 12;
#X obj 406 169 bendout 13;
#X obj 436 145 bendout 14;
#X obj 467 121 bendout 15;
#X obj 497 97 bendout 16;
#X obj 41 49 route 224 225 226 227 228 229 230 231 332 333 334 335
336 337 338 339, f 70;
#X connect 0 0 18 0;
#X connect 18 0 2 0;
#X connect 18 1 3 0;
#X connect 18 2 4 0;
#X connect 18 3 5 0;
#X connect 18 4 6 0;
#X connect 18 5 7 0;
#X connect 18 6 8 0;
#X connect 18 7 9 0;
#X connect 18 8 10 0;
#X connect 18 9 11 0;
#X connect 18 10 12 0;
#X connect 18 11 13 0;
#X connect 18 12 14 0;
#X connect 18 13 15 0;
#X connect 18 14 16 0;
#X connect 18 15 17 0;
#X connect 18 16 1 0;
#X restore 104 559 pd bendout;
#X obj 690 328 text define \$0-midiFile;
#X obj 223 289 bng 15 250 50 0 empty empty play 17 7 0 10 -262144 -1
-1;
#N canvas 607 390 702 325 player 0;
#X obj 42 24 inlet;
#X obj 112 214 del;
#X obj 86 96 tgl 15 0 empty empty pause 17 7 0 10 -262144 -1 -1 0 1
;
#X obj 86 116 t f f;
#X obj 86 48 r \$0-init;
#X msg 86 72 0;
#X obj 130 166 r \$0-tempo;
#X obj 42 48 bng 15 250 50 0 empty empty play 17 7 0 10 -262144 -1
-1;
#X obj 86 24 inlet;
#X obj 299 64 hsl 128 15 0.5 1.5 0 0 \$0-velocity empty velocity -2
-8 0 10 -262144 -1 -1 6350 1;
#X obj 296 24 inlet;
#X obj 161 64 hsl 128 15 1.5 0.5 0 0 \$0-tempo empty tempo -2 -8 0
10 -262144 -1 -1 6350 1;
#X obj 158 24 inlet;
#X obj 209 166 loadbang;
#X msg 209 190 1;
#X obj 323 166 loadbang;
#X msg 323 190 1;
#X obj 86 286 s \$0-markov_bang;
#X obj 209 214 s \$0-init_tempo;
#X obj 323 214 s \$0-init_velocity;
#X obj 112 142 r \$0-delay;
#X obj 112 190 * 1;
#X obj 86 262 sel;
#X obj 112 238 spigot;
#X obj 151 214 == 0;
#X obj 437 64 hsl 128 15 0 1000 0 0 \$0-note_length empty note_length
-2 -8 0 10 -262144 -1 -1 2540 1;
#X obj 434 24 inlet;
#X obj 458 166 loadbang;
#X msg 458 190 200;
#X obj 458 214 s \$0-init_note_length;
#X connect 0 0 7 0;
#X connect 1 0 23 0;
#X connect 2 0 3 0;
#X connect 3 0 22 0;
#X connect 3 1 24 0;
#X connect 4 0 5 0;
#X connect 5 0 2 0;
#X connect 6 0 21 1;
#X connect 7 0 17 0;
#X connect 8 0 2 0;
#X connect 10 0 9 0;
#X connect 12 0 11 0;
#X connect 13 0 14 0;
#X connect 14 0 18 0;
#X connect 15 0 16 0;
#X connect 16 0 19 0;
#X connect 20 0 21 0;
#X connect 21 0 1 0;
#X connect 22 0 17 0;
#X connect 23 0 17 0;
#X connect 24 0 23 1;
#X connect 26 0 25 0;
#X connect 27 0 28 0;
#X connect 28 0 29 0;
#X restore 223 450 pd player;
#X obj 238 325 tgl 15 0 empty empty pause 17 7 0 10 -262144 -1 -1 0
1;
#X obj 271 397 hsl 128 15 0 1 0 0 \$0-velocity \$0-init_velocity velocity
-2 -8 0 10 -262144 -1 -1 12700 0;
#X obj 256 361 hsl 128 15 1.5 0.5 0 0 \$0-tempo \$0-init_tempo tempo
-2 -8 0 10 -262144 -1 -1 6350 0;
#X obj 140 229 r \$0-markov_bang;
#X obj 161 253 r \$0-midi_list;
#X obj 87 367 s \$0-delay;
#X obj 64 319 t l f l;
#X obj 827 402 text size \$0-midiFile;
#X obj 655 663 s \$0-midi_list;
#X obj 678 550 unpack f f f f;
#X obj 655 639 spigot;
#X obj 827 427 print midiFileSize;
#X msg 432 389 save record.mid;
#X msg 464 365 stop;
#X obj 432 173 sel 1;
#N canvas 72 96 450 300 list-drip 0;
#X obj 164 74 inlet;
#X obj 164 184 list store;
#X obj 164 118 until;
#X obj 164 140 f;
#X obj 194 140 + 1;
#X msg 164 162 get \$1 1;
#X obj 207 119 0;
#X obj 164 206 outlet;
#X obj 231 206 outlet;
#X obj 164 96 t b b a;
#X connect 0 0 9 0;
#X connect 1 0 7 0;
#X connect 1 1 8 0;
#X connect 1 1 2 1;
#X connect 2 0 3 0;
#X connect 3 0 5 0;
#X connect 3 0 4 0;
#X connect 4 0 3 1;
#X connect 5 0 1 0;
#X connect 6 0 3 1;
#X connect 9 0 2 0;
#X connect 9 1 6 0;
#X connect 9 2 1 1;
#X restore 207 700 pd list-drip;
#X obj 432 341 t b b;
#X obj 104 415 t l l;
#X obj 604 181 r \$0-record_midi;
#X obj 432 414 s \$0-record_midi;
#X obj 207 724 s \$0-record_midi;
#X obj 207 566 route 0 1;
#X obj 207 542 list prepend;
#X obj 286 429 hsl 128 15 0 1000 0 0 empty \$0-init_note_length note_length
-2 -8 0 10 -262144 -1 -1 2540 1;
#X obj 350 589 r \$0-note_length;
#X obj 237 590 t l l;
#X obj 269 662 pack f f 0;
#X obj 269 614 pipe 0 0 0 0;
#X obj 269 638 - 16;
#X obj 239 506 expr if($f1 >= 144 && $f1 < 160 \, 1 \, 0);
#X obj 709 596 expr if($f1 >= 128 && $f1 < 160 && $f2 == 1 \, 0 \,
1), f 33;
#X obj 207 482 t l f;
#X obj 741 502 spigot;
#X obj 701 427 list split 1;
#X obj 780 478 expr if($f1 >= 192 && $f1 < 207 \, 1 \, 0), f 39;
#X msg 743 133 clear;
#X obj 157 391 r \$0-program;
#X obj 655 402 t l l l;
#X obj 741 451 t l f;
#X obj 655 109 t b b b b a b;
#X msg 484 269 line 0;
#X obj 464 317 s \$0-program;
#X msg 504 245 record;
#X msg 524 221 clear;
#X obj 464 197 t b b b b;
#X obj 743 157 text define \$0-program_buffer;
#X obj 741 526 text set \$0-program_buffer 1000;
#X obj 464 293 text sequence \$0-program_buffer;
#X connect 0 0 43 0;
#X connect 1 0 0 0;
#X connect 2 0 0 0;
#X connect 3 0 0 0;
#X connect 4 0 0 0;
#X connect 10 0 0 0;
#X connect 11 0 12 0;
#X connect 12 0 10 0;
#X connect 13 0 14 0;
#X connect 14 0 74 0;
#X connect 14 1 44 0;
#X connect 15 0 34 0;
#X connect 16 0 17 0;
#X connect 18 0 76 0;
#X connect 19 0 18 0;
#X connect 20 1 16 0;
#X connect 21 0 20 0;
#X connect 22 0 20 0;
#X connect 23 0 10 0;
#X connect 24 1 54 0;
#X connect 26 0 4 0;
#X connect 27 0 28 0;
#X connect 28 0 32 0;
#X connect 30 0 31 0;
#X connect 31 0 27 0;
#X connect 32 0 33 0;
#X connect 33 0 29 0;
#X connect 35 0 36 0;
#X connect 37 0 36 1;
#X connect 37 0 51 0;
#X connect 38 0 36 3;
#X connect 39 0 36 2;
#X connect 40 0 0 0;
#X connect 41 0 0 1;
#X connect 43 0 24 0;
#X connect 43 1 42 0;
#X connect 43 2 25 0;
#X connect 44 0 48 0;
#X connect 46 1 67 0;
#X connect 46 3 67 1;
#X connect 47 0 45 0;
#X connect 49 0 56 0;
#X connect 50 0 56 0;
#X connect 51 0 53 0;
#X connect 51 1 81 0;
#X connect 52 0 57 0;
#X connect 53 0 49 0;
#X connect 53 1 50 0;
#X connect 54 0 30 0;
#X connect 54 1 68 0;
#X connect 55 0 20 0;
#X connect 58 0 52 0;
#X connect 58 1 62 0;
#X connect 59 0 58 0;
#X connect 60 0 36 4;
#X connect 61 0 64 3;
#X connect 62 0 52 0;
#X connect 62 1 64 0;
#X connect 63 0 52 0;
#X connect 64 0 65 0;
#X connect 64 1 63 1;
#X connect 65 0 63 0;
#X connect 66 0 59 1;
#X connect 67 0 47 1;
#X connect 68 0 59 0;
#X connect 68 1 66 0;
#X connect 69 0 83 0;
#X connect 70 1 75 0;
#X connect 71 0 69 1;
#X connect 72 0 82 0;
#X connect 73 0 54 0;
#X connect 74 0 47 0;
#X connect 74 1 46 0;
#X connect 74 2 70 0;
#X connect 75 0 69 0;
#X connect 75 1 71 0;
#X connect 76 0 14 0;
#X connect 76 1 13 0;
#X connect 76 2 15 0;
#X connect 76 3 22 0;
#X connect 76 4 21 0;
#X connect 76 5 72 0;
#X connect 77 0 84 0;
#X connect 79 0 56 0;
#X connect 80 0 56 0;
#X connect 81 0 84 0;
#X connect 81 1 77 0;
#X connect 81 2 79 0;
#X connect 81 3 80 0;
#X connect 84 0 78 0;
