#N canvas 256 340 303 434 10;
#X obj 45 106 / 12;
#X obj 45 295 * 12;
#X obj 45 253 -;
#X obj 45 169 i;
#X obj 45 148 + 0.5;
#X obj 45 316 +;
#X obj 72 211 mod;
#X obj 45 43 inlet;
#X obj 45 379 outlet;
#X obj 45 127 * 1;
#X obj 45 274 / 1;
#X obj 183 43 inlet;
#X obj 99 274 list store;
#X obj 183 64 t a a;
#X obj 183 85 list length;
#X msg 99 253 get \$1 1;
#X obj 45 190 t f f;
#X obj 72 232 t f f;
#X obj 114 43 inlet;
#X obj 99 295 +;
#X obj 114 64 mod 12;
#X obj 45 358 moses;
#X obj 45 337 moses 128;
#X obj 45 85 -;
#X connect 0 0 9 0;
#X connect 1 0 5 0;
#X connect 2 0 10 0;
#X connect 3 0 16 0;
#X connect 4 0 3 0;
#X connect 5 0 22 0;
#X connect 6 0 17 0;
#X connect 7 0 23 0;
#X connect 9 0 4 0;
#X connect 10 0 1 0;
#X connect 11 0 13 0;
#X connect 12 0 19 0;
#X connect 13 0 14 0;
#X connect 13 1 12 1;
#X connect 14 0 9 1;
#X connect 14 0 10 1;
#X connect 14 0 6 1;
#X connect 15 0 12 0;
#X connect 16 0 2 0;
#X connect 16 1 6 0;
#X connect 17 0 2 1;
#X connect 17 1 15 0;
#X connect 18 0 20 0;
#X connect 19 0 5 1;
#X connect 20 0 19 1;
#X connect 20 0 23 1;
#X connect 21 1 8 0;
#X connect 22 0 21 0;
#X connect 23 0 0 0;
